HIERARCHY
ROOT Hips
{
	OFFSET 0.000000 0.000000 0.000000
	CHANNELS 6 Xposition Yposition Zposition Xrotation Yrotation Zrotation
	JOINT LeftUpLeg_virtual
	{
		OFFSET 0.000000 0.000000 0.000000
		CHANNELS 3 Xrotation Yrotation Zrotation
		JOINT LeftUpLeg
		{
			OFFSET 10.205400 -3.823500 0.155100
			CHANNELS 3 Xrotation Yrotation Zrotation
			JOINT LeftLeg
			{
				OFFSET 0.708757 -12.982077 0.567790
				CHANNELS 3 Xrotation Yrotation Zrotation
				JOINT LeftFoot
				{
					OFFSET -0.708756 -10.717838 -2.184338
					CHANNELS 3 Xrotation Yrotation Zrotation
					JOINT LeftToeBase
					{
						OFFSET 0.108149 -7.191104 7.560241
						CHANNELS 3 Xrotation Yrotation Zrotation
						JOINT LeftToe_End
						{
							OFFSET 0.070230 0.081724 4.490308
							CHANNELS 3 Xrotation Yrotation Zrotation
							End Site
							{
								OFFSET 0 0 0
							}
						}
					}
				}
			}
		}
	}
	JOINT RightUpLeg_virtual
	{
		OFFSET 0.000000 0.000000 0.000000
		CHANNELS 3 Xrotation Yrotation Zrotation
		JOINT RightUpLeg
		{
			OFFSET -10.205400 -3.823500 0.005500
			CHANNELS 3 Xrotation Yrotation Zrotation
			JOINT RightLeg
			{
				OFFSET -0.708756 -12.982134 0.610632
				CHANNELS 3 Xrotation Yrotation Zrotation
				JOINT RightFoot
				{
					OFFSET 0.708754 -10.717769 -1.945823
					CHANNELS 3 Xrotation Yrotation Zrotation
					JOINT RightToeBase
					{
						OFFSET -0.108140 -7.191069 7.372968
						CHANNELS 3 Xrotation Yrotation Zrotation
						JOINT RightToe_End
						{
							OFFSET -0.070227 0.081735 4.479403
							CHANNELS 3 Xrotation Yrotation Zrotation
							End Site
							{
								OFFSET 0 0 0
							}
						}
					}
				}
			}
		}
	}
	JOINT Spine_virtual
	{
		OFFSET 0.000000 0.000000 0.000000
		CHANNELS 3 Xrotation Yrotation Zrotation
		JOINT Spine
		{
			OFFSET 0.000000 6.876099 0.125700
			CHANNELS 3 Xrotation Yrotation Zrotation
			JOINT Spine1
			{
				OFFSET 0.000000 5.730043 0.104720
				CHANNELS 3 Xrotation Yrotation Zrotation
				JOINT Spine1_split
				{
					OFFSET 0.000000 5.730043 0.104720
					CHANNELS 3 Xrotation Yrotation Zrotation
					JOINT Spine2
					{
						OFFSET 0.000000 5.730043 0.104720
						CHANNELS 3 Xrotation Yrotation Zrotation
						JOINT Neck_virtual
						{
							OFFSET 0.000000 0.000000 0.000000
							CHANNELS 3 Xrotation Yrotation Zrotation
							JOINT Neck
							{
								OFFSET 0.000000 10.314075 0.188496
								CHANNELS 3 Xrotation Yrotation Zrotation
								JOINT Head
								{
									OFFSET 0.000000 7.643700 -2.377400
									CHANNELS 3 Xrotation Yrotation Zrotation
									JOINT HeadTop_End
									{
										OFFSET 0.000000 43.788605 -13.619600
										CHANNELS 3 Xrotation Yrotation Zrotation
										End Site
										{
											OFFSET 0 0 0
										}
									}
								}
							}
						}
						JOINT LeftShoulder_virtual
						{
							OFFSET 0.000000 0.000000 0.000000
							CHANNELS 3 Xrotation Yrotation Zrotation
							JOINT LeftShoulder
							{
								OFFSET 2.196100 4.412489 0.087492
								CHANNELS 3 Xrotation Yrotation Zrotation
								JOINT LeftShoulder_split
								{
									OFFSET 2.196100 4.412489 0.087492
									CHANNELS 3 Xrotation Yrotation Zrotation
									JOINT LeftArm
									{
										OFFSET 8.771219 -2.981674 -0.026999
										CHANNELS 3 Xrotation Yrotation Zrotation
										JOINT LeftForeArm
										{
											OFFSET 8.512804 0.000000 -0.000000
											CHANNELS 3 Xrotation Yrotation Zrotation
											JOINT LeftHand
											{
												OFFSET 18.484802 0.000000 -0.000000
												CHANNELS 3 Xrotation Yrotation Zrotation
												End Site
												{
													OFFSET 0 0 0
												}
											}
										}
									}
								}
							}
						}
						JOINT RightShoulder_virtual
						{
							OFFSET 0.000000 0.000000 0.000000
							CHANNELS 3 Xrotation Yrotation Zrotation
							JOINT RightShoulder
							{
								OFFSET -2.196100 4.412496 0.070690
								CHANNELS 3 Xrotation Yrotation Zrotation
								JOINT RightShoulder_split
								{
									OFFSET -2.196100 4.412496 0.070690
									CHANNELS 3 Xrotation Yrotation Zrotation
									JOINT RightArm
									{
										OFFSET -8.771282 -2.981682 -0.094208
										CHANNELS 3 Xrotation Yrotation Zrotation
										JOINT RightForeArm
										{
											OFFSET -8.494598 0.000000 0.000000
											CHANNELS 3 Xrotation Yrotation Zrotation
											JOINT RightHand
											{
												OFFSET -18.483803 0.000000 0.000001
												CHANNELS 3 Xrotation Yrotation Zrotation
												End Site
												{
													OFFSET 0 0 0
												}
											}
										}
									}
								}
							}
						}
					}
				}
			}
		}
	}
}
MOTION
Frames: 11
Frame Time: 0.03333333
-0.300596 81.849449 -12.039385 0.000000 0.000000 0.000000 -6.376916 15.113740 5.744742 -76.062476 29.199759 29.677428 88.837545 -12.457262 6.687982 6.937108 13.790897 -5.813749 5.850502 2.193750 -0.398287 0.000000 0.000000 0.000000 -0.374374 14.167803 3.981231 -79.941572 12.897084 -23.421354 97.904300 12.398654 -4.889499 13.475555 -11.909043 32.866037 13.710742 -18.504598 -17.126168 0.000000 0.000000 0.000000 -6.280040 19.095162 2.522975 9.860290 -0.125351 4.886133 15.997312 -3.600460 0.074227 0.159165 0.496647 -0.009835 0.000000 0.000000 0.000000 20.577140 -1.308794 -0.303677 -13.435499 22.140092 -11.702579 -6.361989 -39.977842 -19.734761 0.000000 0.000000 0.000000 17.622559 -3.047782 -2.339002 7.343613 -27.189197 21.611605 5.598070 -0.171928 -3.049390 -68.122688 -27.319479 11.632699 4.926172 -43.311548 22.877331 0.000000 0.000000 0.000000 20.122313 -1.048615 0.056731 3.521078 15.969158 -17.761248 14.101685 6.884255 1.477147 -84.471791 39.892826 18.529743 -38.441080 37.463314 7.847181 0.000000 0.000000 0.000000 
0.063423 82.288963 -12.534864 0.000000 0.000000 0.000000 -7.361426 12.592259 5.261182 -82.341236 27.868034 32.479892 91.444492 -13.414522 8.054493 7.510859 10.838765 -7.619763 4.889556 1.974365 0.835048 0.000000 0.000000 0.000000 -1.416227 13.197488 3.389630 -82.676230 11.040096 -19.321813 93.390918 13.483677 -3.873917 10.911757 -11.651831 29.161537 12.686198 -18.915562 -19.458405 0.000000 0.000000 0.000000 -6.537167 17.122521 2.705292 10.059330 -0.018803 3.721715 18.686417 -4.034835 0.775767 0.184122 0.546975 -0.056415 0.000000 0.000000 0.000000 22.926187 -1.515994 -0.084773 -12.574974 23.931911 -12.741202 -2.042603 -37.347054 -15.370021 0.000000 0.000000 0.000000 20.232164 -3.459876 -1.935677 8.719083 -26.735124 25.628876 7.875309 -1.184372 -3.045021 -71.879374 -22.070167 12.283453 3.312006 -39.626316 24.344828 0.000000 0.000000 0.000000 22.770196 -1.203029 0.340662 5.189126 17.162112 -21.360950 15.374686 5.731357 1.821024 -97.359272 37.298137 25.804451 -39.653353 34.600154 6.654469 0.000000 0.000000 0.000000 
0.450081 82.764946 -12.896334 0.000000 0.000000 0.000000 -7.390959 11.470554 4.872135 -85.806246 27.796099 32.844010 87.770642 -15.783708 9.417951 10.319773 6.028720 -10.878938 3.960988 1.630644 3.122339 0.000000 0.000000 0.000000 -1.678803 12.404476 3.121690 -82.072537 7.995517 -15.583015 82.013824 14.843927 -2.328160 9.012552 -9.499889 25.124081 11.916465 -18.800039 -21.360957 0.000000 0.000000 0.000000 -5.209904 15.892219 2.879417 8.852794 0.286937 2.812679 20.985213 -4.355582 1.539018 0.159789 0.489201 -0.017134 0.000000 0.000000 0.000000 25.045757 -1.547272 0.389346 -11.327258 25.293304 -14.201118 0.493120 -35.162190 -12.478900 0.000000 0.000000 0.000000 22.402676 -3.666851 -1.305435 9.430362 -25.460672 28.183461 8.854924 -1.539900 -3.482156 -75.854708 -18.781762 11.651638 0.852735 -34.302173 24.330117 0.000000 0.000000 0.000000 24.963549 -1.261493 0.825701 6.718388 18.312135 -24.071794 17.289516 4.139787 2.041373 -106.264425 35.994134 27.944442 -39.961658 31.112318 5.820452 0.000000 0.000000 0.000000 
0.771135 83.139786 -13.013449 0.000000 0.000000 0.000000 -6.564855 11.648361 4.715160 -86.336432 29.294726 31.276269 78.387171 -19.429310 9.935684 13.858737 0.313343 -13.859198 2.634715 1.176533 6.059011 0.000000 0.000000 0.000000 -1.792658 11.223068 3.426499 -80.227750 5.265843 -12.746114 65.202502 17.601418 -0.651796 10.034438 -4.625974 22.750959 12.824318 -18.197574 -22.677268 0.000000 0.000000 0.000000 -2.964937 15.456484 3.058678 6.880213 0.726266 2.191310 22.791551 -4.649758 2.223426 0.110326 0.523467 -0.060979 0.000000 0.000000 0.000000 26.699394 -1.561488 0.989283 -10.054914 26.011927 -15.656788 1.433693 -34.036165 -10.728033 0.000000 0.000000 0.000000 24.035791 -3.732883 -0.638935 9.535793 -23.293885 29.716640 9.602477 -1.381859 -3.087587 -79.314984 -17.917721 10.869372 -3.163865 -26.704674 22.320208 0.000000 0.000000 0.000000 26.478185 -1.393645 1.404508 8.133855 19.290134 -26.469357 19.324277 2.410431 2.398079 -110.496663 37.321287 25.771847 -39.622102 27.226254 5.306600 0.000000 0.000000 0.000000 
0.970603 83.187469 -12.869852 0.000000 0.000000 0.000000 -5.665318 12.812209 4.966402 -84.893343 31.931428 28.677891 66.206513 -23.189015 9.044748 16.660566 -4.566948 -14.340039 1.983761 0.659178 8.397607 0.000000 0.000000 0.000000 -1.468184 10.430118 4.044127 -77.616781 2.756313 -10.500139 45.666457 20.697102 1.316645 10.746202 0.951479 20.649310 12.204062 -16.729454 -24.930571 0.000000 0.000000 0.000000 -1.052949 15.596546 3.386017 4.945771 1.258965 1.857615 24.053380 -4.900678 2.697169 0.013303 0.520839 -0.035551 0.000000 0.000000 0.000000 27.677281 -1.611687 1.514756 -8.910788 26.046855 -16.771832 1.418599 -33.988568 -9.583713 0.000000 0.000000 0.000000 25.156058 -3.771737 -0.092036 9.204811 -20.313367 30.941225 10.264430 -0.500532 -2.515361 -81.165337 -19.171011 10.933255 -8.468394 -17.591868 18.645276 0.000000 0.000000 0.000000 27.262531 -1.621469 1.875703 9.382995 20.062417 -28.804516 21.385947 1.106964 2.289510 -110.337540 40.008612 20.255093 -39.230342 24.122702 5.341718 0.000000 0.000000 0.000000 
1.036576 82.708321 -12.494749 0.000000 0.000000 0.000000 -5.399276 13.953655 5.472545 -82.687534 34.698095 26.128301 55.665062 -26.410788 7.368517 17.896450 -7.795162 -11.838439 1.798438 0.246474 9.679292 0.000000 0.000000 0.000000 -0.859181 10.295077 4.610817 -74.319452 -0.074697 -8.857978 28.893056 22.895422 3.290616 9.152208 5.442044 17.866689 7.464867 -14.401500 -28.716543 0.000000 0.000000 0.000000 -0.254120 15.715635 3.865336 3.644189 1.833804 1.789777 24.764342 -5.068633 2.843538 -0.031810 0.504302 -0.074506 0.000000 0.000000 0.000000 28.064223 -1.748668 1.739738 -8.017655 25.551965 -17.256970 0.801350 -35.081255 -8.641080 0.000000 0.000000 0.000000 25.832564 -3.813221 0.187965 8.618670 -17.004253 32.125696 11.058414 0.468795 -2.281842 -80.473521 -21.324407 12.616504 -14.082446 -9.159508 14.044536 0.000000 0.000000 0.000000 27.485214 -1.930186 2.120460 10.379439 20.614655 -31.274101 23.187437 1.112735 1.437190 -106.271685 41.867270 11.829451 -39.174389 23.197961 6.178300 0.000000 0.000000 0.000000 
0.997755 81.753799 -11.886806 0.000000 0.000000 0.000000 -6.340783 14.524817 6.017161 -81.018884 37.037882 24.793705 50.230427 -28.821059 5.674461 16.820700 -9.429938 -6.673567 1.550369 -0.037673 10.061403 0.000000 0.000000 0.000000 -1.451390 10.540426 4.870252 -72.464817 -2.693162 -8.917247 23.441438 24.771192 4.381762 7.741824 8.127749 14.248694 4.683498 -12.953102 -31.142053 0.000000 0.000000 0.000000 -1.051950 15.330305 4.375575 3.162666 2.317808 1.945178 24.969249 -5.164066 2.675367 0.014938 0.508447 -0.134966 0.000000 0.000000 0.000000 27.930095 -1.926658 1.568099 -7.232724 24.673893 -17.140688 0.073952 -36.773738 -7.656345 0.000000 0.000000 0.000000 26.108793 -3.854091 0.107923 8.016549 -14.129244 33.438513 12.070676 0.930223 -2.121427 -76.859443 -23.395269 16.080871 -19.194483 -2.828220 8.930199 0.000000 0.000000 0.000000 27.385840 -2.198594 2.023982 11.166994 21.139903 -33.932510 24.188471 1.403904 0.302870 -100.288357 41.227578 1.890120 -39.544319 24.329383 7.572663 0.000000 0.000000 0.000000 
0.866949 80.589760 -11.299557 0.000000 0.000000 0.000000 -8.728049 15.314131 6.591704 -80.959612 38.165028 25.094808 52.038576 -30.911025 5.179448 14.590362 -10.267052 -0.342722 0.712947 -0.220646 9.986981 0.000000 0.000000 0.000000 -3.950576 11.507191 4.886947 -74.356465 -4.793315 -11.136506 30.743173 25.905560 4.140499 8.385543 8.648245 8.999358 9.006002 -14.062569 -30.547263 0.000000 0.000000 0.000000 -2.866416 14.665330 4.750543 3.322939 2.676699 2.332878 24.770796 -5.141884 2.266993 0.122172 0.424062 -0.119032 0.000000 0.000000 0.000000 27.449207 -2.064920 1.026235 -6.285307 23.551512 -16.620533 -0.324608 -38.401130 -6.403976 0.000000 0.000000 0.000000 26.026352 -3.881746 -0.301447 7.547619 -12.171551 34.725454 12.737643 0.880646 -2.332979 -70.958856 -24.269879 20.990163 -23.507382 1.008019 3.581546 0.000000 0.000000 0.000000 27.137107 -2.314354 1.631573 11.758907 21.795029 -36.478203 24.386502 1.655140 -0.894744 -95.244311 37.356360 -7.313933 -40.145605 26.521179 9.037624 0.000000 0.000000 0.000000 
0.710446 79.453415 -10.672544 0.000000 0.000000 0.000000 -11.929594 16.674722 6.923130 -82.639914 37.742659 26.811226 60.337147 -32.959105 6.191466 12.226292 -10.931544 5.442150 -0.424818 -0.306363 10.019174 0.000000 0.000000 0.000000 -7.332069 12.909685 4.802562 -79.313816 -5.552681 -14.797890 45.134191 26.388340 3.434189 10.306924 7.658936 2.918654 16.082640 -16.494427 -27.997166 0.000000 0.000000 0.000000 -5.302092 13.818101 4.815444 3.796687 2.852595 2.921968 24.327267 -4.977290 1.740186 0.211234 0.395093 -0.181313 0.000000 0.000000 0.000000 26.909723 -2.081899 0.260723 -4.966839 22.382494 -16.109384 -0.648246 -39.474211 -5.122755 0.000000 0.000000 0.000000 25.696787 -3.811717 -0.929459 7.353940 -11.352999 35.668778 13.297280 0.694429 -2.799481 -64.430233 -23.719505 26.005337 -26.904624 2.605269 -1.669514 0.000000 0.000000 0.000000 26.863006 -2.191079 1.115369 12.250571 22.726722 -38.710083 24.404587 1.465769 -1.306629 -92.316461 31.432339 -14.366528 -40.632065 28.390564 10.095650 0.000000 0.000000 0.000000 
0.585922 78.613228 -9.852425 0.000000 0.000000 0.000000 -15.189893 18.122724 6.791345 -85.402793 36.241571 29.336810 71.689823 -34.066050 7.786799 9.983170 -11.099530 10.602778 -0.227110 -0.180321 9.901385 0.000000 0.000000 0.000000 -10.322611 14.676337 4.600686 -84.121593 -5.422750 -18.409055 59.205173 26.769101 3.038908 11.637544 6.149998 -3.365188 20.815413 -18.535255 -25.733361 0.000000 0.000000 0.000000 -7.894221 13.022672 4.536856 4.270322 2.814861 3.635340 23.733002 -4.634889 1.252093 0.209889 0.414486 -0.194014 0.000000 0.000000 0.000000 26.411903 -1.899713 -0.487995 -3.325948 21.289377 -15.863248 -0.996573 -39.700563 -4.143537 0.000000 0.000000 0.000000 25.137717 -3.599385 -1.592853 7.491473 -11.647794 36.163529 13.536687 0.782508 -3.435408 -58.608678 -22.362241 30.044998 -29.331482 2.684028 -6.428139 0.000000 0.000000 0.000000 26.485776 -1.850916 0.598656 12.573116 23.800913 -40.356634 25.292716 0.996217 -1.192650 -91.147030 25.419797 -18.915668 -40.897855 29.442169 10.693989 0.000000 0.000000 0.000000 
0.507414 78.179787 -8.873812 0.000000 0.000000 0.000000 -18.247581 19.465494 6.394204 -88.311204 34.156605 31.681317 82.297414 -33.993558 8.960447 7.749356 -10.325241 14.850554 2.076988 0.197528 9.367344 0.000000 0.000000 0.000000 -12.773125 15.715449 4.201584 -87.042496 -5.775259 -20.806464 67.849883 25.991921 3.622702 11.412950 4.348503 -9.416871 21.365088 -19.582287 -25.768624 0.000000 0.000000 0.000000 -10.307397 12.462236 3.935685 4.562196 2.650653 4.389006 23.091799 -4.117387 0.915971 0.130025 0.422583 -0.233863 0.000000 0.000000 0.000000 26.027660 -1.495827 -1.068903 -1.719149 20.350139 -15.996969 -1.809142 -39.273721 -3.846360 0.000000 0.000000 0.000000 24.417967 -3.211003 -2.089329 7.858906 -12.609088 36.072165 13.495019 0.939293 -4.088755 -54.463484 -20.862905 32.473236 -30.837307 1.497443 -10.381929 0.000000 0.000000 0.000000 25.996666 -1.384087 0.216348 12.609394 24.711879 -41.237964 26.318165 0.586085 -0.757936 -90.501577 20.916828 -21.341097 -41.047391 30.014822 11.215023 0.000000 0.000000 0.000000 
